<svg xmlns="http://www.w3.org/2000/svg" xmlns:xlink="http://www.w3.org/1999/xlink" width="168" height="160.147" viewBox="0 0 168 160.147"><defs><style>.a,.e{fill:none;}.b{clip-path:url(#a);}.c{fill:url(#b);}.d{clip-path:url(#c);}.e{stroke:#2d282d;stroke-miterlimit:10;stroke-width:0.15px;}.f{fill:#4f484d;}</style><clipPath id="a"><path class="a" d="M187.541,84.242a32.645,32.645,0,0,0,8.669,11.379c1.169.954,2.46,1.76,3.7,2.633q1.979-1.631,3.952-3.265c.081-.068.112-.2.238-.433-7.358-2.6-12.37-8.306-17.972-13.243q.709,1.464,1.417,2.928m5.894-3.523c3.65,4.2,8.44,6.582,13.527,8.482a.961.961,0,0,0,.879-.206c.92-1.37,1.773-2.786,2.755-4.361a50.722,50.722,0,0,1-17.568-4.5c.236.339.311.469.407.58m.639,24.787c2.105,0,3.947.117,5.767-.032a46.76,46.76,0,0,0,5.665-.9,3.269,3.269,0,0,0,1.65-.983c7-7.813,9.8-17.215,10.232-27.528-4.021,12.685-10.917,23.1-23.314,29.442m-4.446-.571,5.589-3.013c-9.25-6.622-14.21-15.663-17.1-26.054.6,10.963,3.814,20.863,11.515,29.066M170.745,74.629a36.163,36.163,0,0,0,.074,19.681,4.763,4.763,0,0,0,1.36,2.092,37.731,37.731,0,0,0,9.295,5.772c-1.651-2.769-3.6-5.573-5.075-8.61-2.738-5.65-2.918-11.757-2.632-17.9.117-2.535.138-5.078.1-7.616a35.946,35.946,0,0,0-.412-3.7c-.886,3.365-1.811,6.822-2.705,10.288M221.4,69.385c-.018,3.79.111,7.58.11,11.37a31.636,31.636,0,0,1-5.955,18.678l-2.111,2.979a43.594,43.594,0,0,0,9.605-5.878,4.08,4.08,0,0,0,1.11-1.72,34.351,34.351,0,0,0,.38-19.87c-.946-3.612-1.806-7.247-2.781-11.18-.135,2.006-.349,3.813-.359,5.62M168.544,60.8c-1.3,1.855-2.636,3.691-3.917,5.561a33.931,33.931,0,0,0-5.206,13.587,5.618,5.618,0,0,0,.685,4.026,29.1,29.1,0,0,0,5.3,6.725c-2.6-7.555-1.622-14.838,1.46-21.969.914-2.117,1.983-4.168,2.865-6.3.829-2,1.505-4.071,2.248-6.111l-.24-.083q-1.6,2.281-3.192,4.562M223.1,55.885c.671,1.861,1.288,3.743,2.025,5.577,1.411,3.513,2.989,6.961,4.314,10.5a25.768,25.768,0,0,1,1.492,13.818c-.313,1.719-.734,3.417-1.144,5.305,2.278-2.659,4.508-5.157,5.868-8.268a3.759,3.759,0,0,0,.243-1.813,29.147,29.147,0,0,0-4.375-13.227c-2.645-4.038-5.489-7.945-8.246-11.909l-.177.014m4.167-1.913q3.5,4.185,7.072,8.305a24.623,24.623,0,0,1,5.536,11.49c.067.334.168.661.253.99l.321.02c.374-2.415.627-4.856,1.154-7.236a6.269,6.269,0,0,0-2.154-6.423c-2.444-2.182-4.927-4.342-7.56-6.286a37.163,37.163,0,0,1-9.167-8.975c-.022-.033-.118-.016-.3-.036a33.238,33.238,0,0,0,4.847,8.152m-64.106,1.216c-1.246.876-2.449,1.812-3.668,2.725a18.378,18.378,0,0,0-4.934,5.579,2.47,2.47,0,0,0-.465,1.177,26,26,0,0,0,1.532,8.982c.04-.184.089-.367.119-.553a22.7,22.7,0,0,1,5.962-12.117c1.839-1.969,3.657-3.96,5.517-5.911a26.174,26.174,0,0,0,5.188-7.746c.138-.322.319-.626.465-.945.122-.269.223-.549.332-.824a40.424,40.424,0,0,1-10.047,9.634m.4-10.923a45.963,45.963,0,0,0-6.931,3.371,3.1,3.1,0,0,0-1.568,1.649c-.583,2.829-.951,5.7-1.4,8.56l.382.106c1.783-4.166,4.93-7.069,8.648-9.433q2.423-1.54,4.9-3a29.662,29.662,0,0,0,8.28-7.368c-3.619,3.052-7.908,4.645-12.311,6.117M219.5,38.412a35.373,35.373,0,0,0,8.113,7.024c2.6,1.578,5.177,3.209,7.659,4.968a17.838,17.838,0,0,1,5.671,6.753c.125.251.281.486.423.729-.044-2.357-.407-4.629-.63-6.915a4.271,4.271,0,0,0-2.5-3.687,82.952,82.952,0,0,0-8.562-3.72,31.694,31.694,0,0,1-9.575-5.055c-.2-.159-.414-.3-.783-.568a2.274,2.274,0,0,0,.186.471m-43.449,4.357a17.51,17.51,0,0,0-.371,7.212,66.224,66.224,0,0,0,7.849,23.681,33.935,33.935,0,0,0,2.737,3.936,6.763,6.763,0,0,0,1.344,1.027c.358-1.114.65-1.959.9-2.816,1.005-3.412,1.892-6.864,3.04-10.226a18.869,18.869,0,0,1,2.539-4.979c2.047-2.8,5.319-2.823,7.425-.072a15.765,15.765,0,0,1,2.4,4.521c1.174,3.519,2.092,7.123,3.125,10.689.257.89.55,1.77.827,2.654l.511.188a41.161,41.161,0,0,0,2.743-3.548,65.968,65.968,0,0,0,7.191-17.263,41.005,41.005,0,0,0,1.767-11.2c-.032-5.363-3.218-10.216-7.7-11.872-3.91-1.445-10.151.3-13.247,3.758,2.707,1.511,5.717,1.709,8.747,2.093a1.762,1.762,0,0,1-.239.274.6.6,0,0,1-.222.073c-3.715.611-7.259.254-10.454-1.923-1-.682-1.942-1.447-2.911-2.174a12.41,12.41,0,0,0-7.446-2.761c-5.082,0-9.163,3.925-10.563,8.733M161.772,34.8c-1.127,1.544-2.167,3.153-3.207,4.759a20.221,20.221,0,0,0-.956,1.856,13.34,13.34,0,0,1,8.95-4.294c2.1-.154,4.217-.17,6.323-.292a6.654,6.654,0,0,0,4.307-1.691,34.6,34.6,0,0,1-4.363-.381c-1.941-.417-3.834-1.059-5.741-1.626a5.571,5.571,0,0,0-1.588-.239,4.5,4.5,0,0,0-3.725,1.908m66.422-2.039a24.268,24.268,0,0,1-10.155,1.8,6.517,6.517,0,0,0,4.105,1.791c1.792.119,3.591.132,5.387.213,3.632.164,6.928,1.148,9.483,3.923.189.205.412.38.619.568l.309-.237c-1.415-2.13-2.777-4.3-4.26-6.378a4.466,4.466,0,0,0-3.7-2.017,5.236,5.236,0,0,0-1.792.333m-5.6-12.214A47.315,47.315,0,1,1,153.354,77.2a45.975,45.975,0,0,1-1.237-28.939c3.278-11.708,10.222-20.754,20.419-27.412L170.34,18.3a50.6,50.6,0,0,0,31.529,93.068c23.63-2.032,42.665-19.589,46.16-42.673a49.6,49.6,0,0,0-5.963-32.726,50.492,50.492,0,0,0-17.272-18l-2.2,2.574m-13.018,7.943a2.063,2.063,0,0,1,2.044-2,2.1,2.1,0,0,1,1.961,1.965,2.143,2.143,0,0,1-1.989,1.956h-.015a2.135,2.135,0,0,1-2-1.924m-25.827,1.92a2.094,2.094,0,0,1-1.962-1.966,1.992,1.992,0,0,1,3.984.059,2.1,2.1,0,0,1-1.995,1.907h-.028m20.775-.721a2.126,2.126,0,0,1-1.982-1.934,2,2,0,0,1,4.005-.072,2.11,2.11,0,0,1-2.005,2.006h-.018M188.788,27.77a2.082,2.082,0,0,1,2.045-2.007,2.05,2.05,0,0,1,1.951,1.966,2.094,2.094,0,0,1-1.972,1.96H190.8a2.135,2.135,0,0,1-2.01-1.919m6.882-.565a2.047,2.047,0,0,1,1.98-1.909,2.081,2.081,0,0,1,2.02,2,2.145,2.145,0,0,1-2,1.917h-.01A2.069,2.069,0,0,1,195.67,27.2M194.165,5.447a26.53,26.53,0,0,0-1.445,2.805,1.506,1.506,0,0,0,.537,2.093,6.954,6.954,0,0,1,2.589,6.371,2.864,2.864,0,0,1-.348-1.033,6.37,6.37,0,0,0-5.441-4.952,3.983,3.983,0,0,0-4.105,2.659c-.488,1.723.34,3.392,2.4,4.42-.909-1.1-.927-2.034-.1-2.872a2.507,2.507,0,0,1,3.046-.318,4.286,4.286,0,0,1,2.6,3c.589,2.551-.141,4.979-1.026,7.365.093-1.115.185-2.231.289-3.481-4.25,2.3-10.359,4.279-12.407,4.088l4.14-1.853-.135-.316c-.749.288-1.492.592-2.249.857s-1.518.489-2.277.73l-.093-.2,2.355-1.464-.116-.214-2.207.836-.1-.182,1.352-1.144a46.519,46.519,0,0,1-3.216-3.6,1.864,1.864,0,0,1,.393-2.562,4.1,4.1,0,0,1,2.49-.9c1.277.067,1.938,1.116,2.161,2.443,1.328-2.347,1.192-4.049-.353-5.229-2.516-1.922-6.808-.2-7.287,2.915-.044.287-.092.575-.138.862a3.869,3.869,0,0,1,.712-3.83c-1.75-2.986-6.177-5.086-9.033-4.313,6.06,7.19,10.98,15.019,13.452,24.2,5.974-3.03,11.659-2.7,17.059,1.149,5.118-3.333,10.167-4.595,17.181-1.2,2.465-9.192,7.419-17.012,13.591-24.353-3.9.075-7.058,1.188-9.234,4.454a4.048,4.048,0,0,1,.806,3.884c-.119-2.545-1.622-3.822-3.89-4.408a3.955,3.955,0,0,0-4.389,1.445c-.716,1.029-.552,2.792.429,4.269a2.833,2.833,0,0,1,2.09-2.326,2.511,2.511,0,0,1,2.623.919,2.18,2.18,0,0,1,.241,2.823,43.879,43.879,0,0,1-3.133,3.321l1.383,1.2-.088.167-2.228-.833-.117.211,2.365,1.463-.105.24-4.5-1.57-.117.285,4.209,1.869c-4.331-.718-8.611-1.547-12.532-4.229.119,1.375.213,2.473.308,3.571a14.14,14.14,0,0,1-1.224-6.114,4.5,4.5,0,0,1,2.4-4.038,2.739,2.739,0,0,1,3.294-.026c.994.855.93,1.852.18,3.008,2.024-1.123,2.825-2.87,2.222-4.557a3.914,3.914,0,0,0-4.662-2.407,6.189,6.189,0,0,0-4.809,4.772c-.089.365-.17.732-.256,1.1a6.708,6.708,0,0,1,1.951-5.912c1.561-1.6,1.584-1.6.613-3.627a15.563,15.563,0,0,0-1.056-1.823c-1.215-1.842-2.452-3.669-3.486-5.211-1.058,1.571-2.347,3.416-3.558,5.313" transform="translate(-146.955 -0.134)"/></clipPath><linearGradient id="b" x1="-0.263" y1="1.414" x2="-0.261" y2="1.414" gradientUnits="objectBoundingBox"><stop offset="0" stop-color="#817267"/><stop offset="0.17" stop-color="#a08c7c"/><stop offset="0.279" stop-color="#c1ac9a"/><stop offset="0.39" stop-color="#e7d1bd"/><stop offset="0.549" stop-color="#d8c5b0"/><stop offset="0.599" stop-color="#cfbba7"/><stop offset="0.68" stop-color="#b7a390"/><stop offset="0.701" stop-color="#b09c8a"/><stop offset="0.729" stop-color="#b6a290"/><stop offset="0.771" stop-color="#c8b5a4"/><stop offset="0.82" stop-color="#e5d3c3"/><stop offset="0.855" stop-color="#feeedf"/><stop offset="0.932" stop-color="#b09c8a"/><stop offset="1" stop-color="#847c78"/></linearGradient><clipPath id="c"><rect class="a" width="168" height="160.147"/></clipPath></defs><g transform="translate(33.151 0.03)"><g class="b"><rect class="c" width="107.657" height="113.224" transform="translate(-4.831 0)"/></g></g><g class="d"><path class="e" d="M207.646,40.822a.6.6,0,0,1-.222.072c-3.715.612-7.258.254-10.454-1.923-1-.681-1.942-1.447-2.912-2.174-8.227-6.17-15.969-1.037-18.01,5.972a17.518,17.518,0,0,0-.371,7.212,66.222,66.222,0,0,0,7.849,23.681,33.889,33.889,0,0,0,2.737,3.936,6.754,6.754,0,0,0,1.344,1.027c.359-1.114.65-1.959.9-2.816,1.005-3.411,1.892-6.863,3.04-10.225a18.87,18.87,0,0,1,2.539-4.979c2.046-2.8,5.319-2.823,7.425-.072a15.76,15.76,0,0,1,2.4,4.521c1.174,3.519,2.092,7.123,3.125,10.689.257.89.55,1.77.827,2.654l.51.189a41.185,41.185,0,0,0,2.743-3.549,65.965,65.965,0,0,0,7.191-17.263,41,41,0,0,0,1.767-11.2c-.032-5.363-3.218-10.216-7.7-11.872-3.91-1.445-10.151.3-13.247,3.758,2.708,1.511,5.718,1.709,8.747,2.093A1.784,1.784,0,0,1,207.646,40.822Zm22.143,50.267c2.279-2.659,4.508-5.157,5.868-8.268a3.761,3.761,0,0,0,.243-1.813,29.15,29.15,0,0,0-4.375-13.227c-2.645-4.038-5.489-7.945-8.245-11.909l-.177.014c.671,1.86,1.288,3.743,2.025,5.576,1.411,3.513,2.99,6.961,4.314,10.5a25.766,25.766,0,0,1,1.492,13.818C230.62,87.5,230.2,89.2,229.789,91.089ZM169.727,62.43c.829-2,1.505-4.071,2.249-6.111l-.24-.083q-1.6,2.281-3.192,4.562c-1.3,1.855-2.636,3.691-3.917,5.561a33.934,33.934,0,0,0-5.206,13.587,5.62,5.62,0,0,0,.685,4.026,29.1,29.1,0,0,0,5.3,6.725c-2.6-7.555-1.622-14.838,1.46-21.969C167.777,66.611,168.845,64.56,169.727,62.43Zm70.4,12.328.321.02c.374-2.415.626-4.856,1.154-7.236a6.269,6.269,0,0,0-2.154-6.423c-2.444-2.182-4.927-4.342-7.56-6.286a37.162,37.162,0,0,1-9.167-8.975c-.022-.033-.118-.016-.3-.036a33.25,33.25,0,0,0,4.846,8.152q3.5,4.185,7.072,8.3a24.624,24.624,0,0,1,5.536,11.49C239.944,74.1,240.045,74.428,240.13,74.757ZM197.668,33.768c5.118-3.333,10.167-4.595,17.181-1.2,2.465-9.192,7.419-17.012,13.591-24.353-3.9.076-7.058,1.188-9.235,4.455a4.047,4.047,0,0,1,.806,3.884c-.119-2.545-1.622-3.822-3.89-4.408a3.954,3.954,0,0,0-4.389,1.445c-.716,1.029-.552,2.792.429,4.269a2.833,2.833,0,0,1,2.09-2.326,2.512,2.512,0,0,1,2.623.919,2.18,2.18,0,0,1,.241,2.823,43.924,43.924,0,0,1-3.132,3.321l1.382,1.2-.088.167-2.228-.833-.118.211,2.365,1.463-.106.24-4.5-1.57c-.039.095-.079.189-.117.285l4.209,1.869c-4.331-.718-8.611-1.546-12.532-4.229.119,1.375.213,2.473.308,3.571a14.136,14.136,0,0,1-1.224-6.114,4.5,4.5,0,0,1,2.4-4.038,2.739,2.739,0,0,1,3.294-.026c.994.855.93,1.852.18,3.008,2.024-1.123,2.825-2.87,2.222-4.557a3.914,3.914,0,0,0-4.662-2.408,6.188,6.188,0,0,0-4.809,4.772c-.089.365-.17.732-.256,1.1a6.708,6.708,0,0,1,1.951-5.912c1.561-1.605,1.584-1.6.613-3.627a15.58,15.58,0,0,0-1.056-1.823c-1.215-1.842-2.452-3.669-3.486-5.211-1.058,1.571-2.348,3.416-3.558,5.313a26.533,26.533,0,0,0-1.445,2.805,1.505,1.505,0,0,0,.537,2.093,6.955,6.955,0,0,1,2.589,6.371,2.858,2.858,0,0,1-.347-1.033,6.37,6.37,0,0,0-5.441-4.952,3.983,3.983,0,0,0-4.105,2.659c-.488,1.723.34,3.392,2.4,4.42-.909-1.1-.927-2.034-.1-2.872a2.507,2.507,0,0,1,3.046-.318,4.286,4.286,0,0,1,2.6,3c.589,2.551-.141,4.979-1.026,7.365.093-1.116.185-2.231.289-3.481-4.25,2.3-10.359,4.279-12.407,4.088l4.14-1.853-.135-.316c-.749.287-1.492.592-2.249.857s-1.518.488-2.277.729l-.093-.2,2.355-1.464-.116-.214-2.207.836-.1-.182,1.352-1.144a46.621,46.621,0,0,1-3.216-3.6,1.864,1.864,0,0,1,.393-2.562,4.1,4.1,0,0,1,2.49-.9c1.276.067,1.938,1.116,2.161,2.443,1.329-2.347,1.192-4.049-.353-5.229-2.515-1.922-6.808-.2-7.287,2.915-.044.287-.092.575-.138.862a3.869,3.869,0,0,1,.712-3.83c-1.75-2.986-6.177-5.086-9.033-4.313,6.06,7.19,10.981,15.019,13.452,24.2C186.583,29.589,192.268,29.917,197.668,33.768Zm13.953-7.277a2.1,2.1,0,0,1,1.96,1.966,2,2,0,0,1-4,.032A2.064,2.064,0,0,1,211.621,26.491Zm-7.169-.726a2.062,2.062,0,0,1,2.1,1.917,2,2,0,0,1-4.005.072A2.078,2.078,0,0,1,204.453,25.765Zm-6.8-.469a2.081,2.081,0,0,1,2.02,2,2.145,2.145,0,0,1-2,1.917,2.069,2.069,0,0,1-2-2.013A2.047,2.047,0,0,1,197.65,25.3Zm-6.817.467a2.05,2.05,0,0,1,1.951,1.966,2.093,2.093,0,0,1-1.971,1.96,2.134,2.134,0,0,1-2.025-1.919A2.082,2.082,0,0,1,190.834,25.762Zm-7.087.728a2.047,2.047,0,0,1,2.025,2.012,1.993,1.993,0,0,1-3.984-.058A2.045,2.045,0,0,1,183.747,26.49Zm58.32,9.479a50.491,50.491,0,0,0-17.272-18l-2.2,2.574A47.315,47.315,0,1,1,153.354,77.2a45.977,45.977,0,0,1-1.237-28.94c3.278-11.707,10.222-20.754,20.419-27.412L170.341,18.3a50.6,50.6,0,0,0,31.529,93.068c23.63-2.032,42.665-19.589,46.16-42.673A49.6,49.6,0,0,0,242.067,35.969Zm-3.835,11.315a83.041,83.041,0,0,0-8.562-3.72,31.69,31.69,0,0,1-9.576-5.054c-.2-.158-.414-.3-.783-.568a2.259,2.259,0,0,0,.186.471,35.368,35.368,0,0,0,8.113,7.024c2.6,1.578,5.177,3.209,7.659,4.968a17.84,17.84,0,0,1,5.671,6.753c.124.251.281.486.423.729-.044-2.357-.407-4.629-.63-6.915A4.272,4.272,0,0,0,238.232,47.284ZM228.195,32.76a24.269,24.269,0,0,1-10.155,1.8,6.52,6.52,0,0,0,4.105,1.792c1.792.119,3.591.132,5.387.213,3.632.164,6.928,1.148,9.483,3.923.189.206.412.38.619.569l.309-.237c-1.415-2.13-2.777-4.3-4.26-6.378A4.494,4.494,0,0,0,228.195,32.76ZM187.542,84.242a32.642,32.642,0,0,0,8.668,11.379c1.169.954,2.46,1.76,3.7,2.633q1.978-1.631,3.952-3.265c.081-.068.112-.2.238-.433-7.358-2.6-12.37-8.306-17.972-13.242Q186.833,82.778,187.542,84.242ZM172.18,96.4a37.734,37.734,0,0,0,9.294,5.772c-1.651-2.769-3.6-5.573-5.074-8.61-2.738-5.65-2.918-11.757-2.632-17.9.117-2.535.138-5.078.1-7.616a35.942,35.942,0,0,0-.412-3.7c-.886,3.364-1.811,6.822-2.705,10.288a36.164,36.164,0,0,0,.074,19.682A4.764,4.764,0,0,0,172.18,96.4Zm23.037,5.52c-9.249-6.622-14.209-15.663-17.1-26.054.6,10.963,3.814,20.863,11.515,29.066ZM207.842,89c.92-1.37,1.773-2.786,2.755-4.361a50.723,50.723,0,0,1-17.568-4.5c.237.339.311.469.407.58,3.649,4.2,8.44,6.582,13.527,8.482A.961.961,0,0,0,207.842,89Zm-52.1-15.9a22.7,22.7,0,0,1,5.962-12.117c1.839-1.97,3.657-3.961,5.517-5.911a26.17,26.17,0,0,0,5.188-7.746c.138-.322.319-.626.465-.945.122-.269.223-.549.333-.824a40.435,40.435,0,0,1-10.047,9.634c-1.246.876-2.449,1.812-3.668,2.725a18.38,18.38,0,0,0-4.934,5.579,2.469,2.469,0,0,0-.465,1.177,26,26,0,0,0,1.531,8.982C155.668,73.466,155.717,73.283,155.747,73.1Zm44.1,32.377a46.8,46.8,0,0,0,5.665-.9,3.27,3.27,0,0,0,1.651-.983c7-7.813,9.8-17.215,10.232-27.528-4.021,12.685-10.917,23.1-23.314,29.442C196.18,105.506,198.022,105.623,199.842,105.474Zm24.317-10.659a34.351,34.351,0,0,0,.38-19.87c-.946-3.612-1.806-7.247-2.781-11.18-.135,2.006-.349,3.813-.358,5.62-.018,3.79.111,7.58.11,11.37a31.637,31.637,0,0,1-5.955,18.678l-2.111,2.979a43.6,43.6,0,0,0,9.605-5.878A4.081,4.081,0,0,0,224.159,94.815Zm-69.1-45.529c-.584,2.829-.951,5.7-1.4,8.56l.381.105c1.783-4.166,4.93-7.069,8.648-9.433q2.424-1.54,4.9-3a29.656,29.656,0,0,0,8.28-7.368c-3.619,3.052-7.908,4.645-12.312,6.118a45.939,45.939,0,0,0-6.931,3.371A3.1,3.1,0,0,0,155.063,49.285ZM167.085,33.13a4.657,4.657,0,0,0-5.313,1.669c-1.127,1.544-2.167,3.153-3.207,4.759a20.218,20.218,0,0,0-.956,1.856,13.341,13.341,0,0,1,8.95-4.294c2.1-.154,4.217-.17,6.323-.292a6.653,6.653,0,0,0,4.306-1.691,34.6,34.6,0,0,1-4.363-.381C170.886,34.338,168.993,33.7,167.085,33.13Z" transform="translate(-113.804 -0.104)"/><path class="f" d="M0,534.221l1.779-.615v6.81c0,2.987,1.3,4.327,3.3,4.327s3.318-1.34,3.318-4.327v-6.2l1.779-.615v6.7c0,4.131-2.2,5.822-5.1,5.866C2.175,546.128,0,544.437,0,540.306Zm5.075-2.2a.981.981,0,0,0,.989-1.032.959.959,0,0,0-.966-1.011,1.022,1.022,0,0,0-.044,2.043Z" transform="translate(0 -410.423)"/><path class="f" d="M57.309,532.534s1.274,1.45.351,1.45H56.233c-1.3,0-3.34-.856-3.34-4.24V520.3l1.78-.637v9.864c0,1.89.549,3.01,1.977,3.01h.66Z" transform="translate(-40.961 -402.431)"/><path class="f" d="M77.444,532.533s1.274,1.45.351,1.45a3.6,3.6,0,0,1-3.273-1.955,2.878,2.878,0,0,1-2.746,1.955l-.659-1.45c1.34,0,2.021-1.12,2.021-2.658v-5.251l1.78-.615v6.041a2.393,2.393,0,0,0,2.263,2.482ZM73.885,521.7a.99.99,0,0,1-.967-1.032,1.008,1.008,0,0,1,1.011-1.011.959.959,0,0,1,.967,1.011.969.969,0,0,1-.989,1.032Z" transform="translate(-55.074 -402.43)"/><path class="f" d="M97.805,547.467c1.34,0,2.021-1.12,2.021-2.658v-3.427l1.78-.637v4.24a2.393,2.393,0,0,0,2.263,2.482c1.362,0,1.977-1.12,1.977-2.658v-4.24l1.78-.638v5.053a2.368,2.368,0,0,0,2.2,2.482c1.406,0,2.109-1.12,2.109-3.01v-4.9l1.779-.615v5.734c0,3.384-1.912,4.24-3.229,4.24a3.468,3.468,0,0,1-3.273-1.955,2.873,2.873,0,0,1-2.725,1.955,3.572,3.572,0,0,1-3.273-1.955,2.88,2.88,0,0,1-2.746,1.955Z" transform="translate(-75.741 -417.364)"/><path class="f" d="M174.326,520.543h1.823V509.514l1.714-.637v11.665h.769c1.406,0,2.109-1.12,2.109-3.01v-9.227l1.779-.637v10.084c0,3.383-1.911,4.24-3.229,4.24h-5.6Zm.791-12.918h2.966l.374-.9h-1.23a.76.76,0,0,1-.791-.79.8.8,0,0,1,.791-.879,1.669,1.669,0,0,1,.768.2l.264-.812a2.111,2.111,0,0,0-1.032-.264,1.678,1.678,0,0,0-1.758,1.779,1.976,1.976,0,0,0,.242.769h-.967Z" transform="translate(-134.507 -390.44)"/><path class="f" d="M220.643,520.3l1.779-.637v14.323h-1.779Z" transform="translate(-170.868 -402.431)"/><path class="f" d="M269.765,546.484s1.274,1.45.351,1.45a3.619,3.619,0,0,1-3.273-1.955,2.921,2.921,0,0,1-2.636,1.955h-6.789a4.9,4.9,0,0,1-4.92-5.162,5.583,5.583,0,0,1,3.361-5.1l.658.989a4.9,4.9,0,0,0-2.395,4.086,3.484,3.484,0,0,0,3.3,3.735h6.129c1.275-.066,1.911-1.142,1.911-2.658v-5.251l1.779-.615V544a2.379,2.379,0,0,0,2.263,2.482Zm-9.381,5.646a.977.977,0,0,1-.967-1.033.994.994,0,0,1,1.011-1.01,1.023,1.023,0,0,1-.022,2.043Z" transform="translate(-195.537 -416.382)"/><path class="f" d="M345.666,535.324s1.275,1.45.352,1.45H328.509l-.615-1.45h1.692V523.878l1.757-.615-.4,9.93c1.1-3.339,3.757-6.283,7.8-6.283,2.724,0,5.162,1.669,5.162,4.723a5.148,5.148,0,0,1-1.779,3.691h3.536Zm-6.942-6.986c-4.041,0-6.5,3.471-7.315,6.986h6.876a3.847,3.847,0,0,0,3.779-3.735,3.255,3.255,0,0,0-3.34-3.251" transform="translate(-253.925 -405.221)"/><path class="f" d="M405.341,532.534c1.406,0,2.11-1.12,2.11-3.01V520.3l1.779-.637v10.084c0,3.384-1.911,4.24-3.23,4.24Z" transform="translate(-313.901 -402.431)"/><path class="f" d="M466.358,546.259s1.274,1.45.351,1.45h-1.538a3.784,3.784,0,0,1-3.6-2.438l-2.373-5.646c-.329-.879-.747-1.054-1.472-.747-.79.351-.66.988-.418,1.625l2.878,7.205h-9.206a4.905,4.905,0,0,1-4.92-5.162,5.583,5.583,0,0,1,3.361-5.1l.659.989a4.9,4.9,0,0,0-2.395,4.086,3.484,3.484,0,0,0,3.3,3.735h6.855c-2.417-5.844-2.22-5.536-2.351-6.019-.264-.879.505-2.439,2.482-2.791,1.275-.219,2.308.088,2.769,1.274l2.459,6.152a2.6,2.6,0,0,0,2.483,1.384h.682Zm-14.346,5.646a.977.977,0,0,1-.967-1.033.989.989,0,0,1,.989-1.01,1.023,1.023,0,0,1,0,2.043Zm2.724,0a.978.978,0,0,1-.967-1.033.99.99,0,0,1,.989-1.01,1.022,1.022,0,0,1,0,2.043Z" transform="translate(-345.433 -416.156)"/><path class="f" d="M534.71,547.466c1.406,0,2.109-1.12,2.109-3.01v-4.9l1.779-.615v5.734c0,3.383-1.911,4.239-3.229,4.239Zm2.878,5.646a.977.977,0,0,1-.967-1.033.994.994,0,0,1,1.011-1.01.958.958,0,0,1,.967,1.01.981.981,0,0,1-.988,1.033Z" transform="translate(-414.086 -417.364)"/><path class="f" d="M559.742,504.1h.966a1.987,1.987,0,0,1-.241-.769,1.677,1.677,0,0,1,1.757-1.779,2.11,2.11,0,0,1,1.033.263l-.264.813a1.67,1.67,0,0,0-.769-.2.8.8,0,0,0-.79.879.76.76,0,0,0,.79.791h1.23l-.374.9h-2.966Zm1.033,2.175,1.779-.637v14.323h-1.779Z" transform="translate(-433.471 -388.404)"/><path class="f" d="M604.476,539.471s1.275,1.45.353,1.45a3.5,3.5,0,0,1-2.9-1.384v.681c0,3.164-1.231,4.877-4.174,4.965l-.221-1.406c1.671-.155,2.747-.572,2.638-4.218v-5.976l1.757-.637v4.306a2.358,2.358,0,0,0,2.262,2.218Zm-3.536-8.809a.977.977,0,0,1-.967-1.033.99.99,0,0,1,.989-1.011,1.023,1.023,0,0,1,0,2.043Z" transform="translate(-462.737 -409.368)"/><path class="f" d="M627.154,535.022H633.9s-1.208-3.163-1.691-4.284a3.3,3.3,0,0,0-3.076-2.285,3.6,3.6,0,0,0-1.252.175l4.68-5.756h2.174l-4.086,4.57c1.516.066,2.483,1.274,3.12,2.812.264.659,2.218,5.426,2.659,6.217H627.77Z" transform="translate(-485.675 -404.919)"/><path class="f" d="M676.957,554.329s1.275,1.45.352,1.45a3.5,3.5,0,0,1-2.9-1.384v.681c0,3.163-1.23,4.877-4.174,4.964l-.22-1.406c1.67-.154,2.745-.571,2.636-4.218v-5.976l1.757-.637v4.306a2.358,2.358,0,0,0,2.263,2.219Z" transform="translate(-518.867 -424.226)"/><path class="f" d="M699.627,546.638h2.638a6.014,6.014,0,0,1-1.165-3.647c0-2.548,1.428-5.075,4.416-5.118,2.592,0,4.284,2.021,4.284,5.03,0,3.164-1.933,5.185-4.394,5.185h-5.163Zm5.823.132c1.779,0,2.57-1.978,2.57-3.823s-.812-3.735-2.548-3.735c-1.714,0-2.637,1.867-2.637,3.844,0,1.889.88,3.713,2.593,3.713Z" transform="translate(-541.799 -416.535)"/><path class="f" d="M7.455,659.03v-.4a1.729,1.729,0,0,0,1.234-.619,17.035,17.035,0,0,0,1.411-2.88l4.444-10.469h.424l5.315,12.093a5.109,5.109,0,0,0,.849,1.486,2.024,2.024,0,0,0,1.068.388v.4H16.775v-.4a4.784,4.784,0,0,0,1.206-.2q.271-.119.271-.586a2.6,2.6,0,0,0-.1-.549,5.984,5.984,0,0,0-.292-.829L17,654.416H11.38q-.83,2.094-.992,2.555a2.361,2.361,0,0,0-.162.731.753.753,0,0,0,.437.746,3.454,3.454,0,0,0,1.018.186v.4Zm9.186-5.478L14.2,647.678l-2.456,5.874Z" transform="translate(-5.773 -499.238)"/><path class="f" d="M76.009,659.495a3.065,3.065,0,0,0,1.663-.4,2.082,2.082,0,0,0,.378-1.518V648.09a2.108,2.108,0,0,0-.378-1.516,2.943,2.943,0,0,0-1.663-.4v-.4h5.973a8.485,8.485,0,0,1,4.063.824,2.961,2.961,0,0,1,1.5,2.836A2.678,2.678,0,0,1,86.5,651.73a4.975,4.975,0,0,1-1.781.74,6.384,6.384,0,0,1,2.511,1.181,2.792,2.792,0,0,1,1.041,2.316,3.42,3.42,0,0,1-2.31,3.434,8.067,8.067,0,0,1-3,.489H76.009Zm8.02-7.739a2.262,2.262,0,0,0,1.354-2.243,2.539,2.539,0,0,0-1.562-2.578,7.12,7.12,0,0,0-2.625-.365,1.738,1.738,0,0,0-.822.115q-.157.115-.157.626v4.821l2.031-.031a4.513,4.513,0,0,0,1.781-.344m.687,6.729a2.567,2.567,0,0,0,1.1-2.437,2.49,2.49,0,0,0-1.291-2.448,7.248,7.248,0,0,0-3.291-.656h-.62c-.087,0-.221,0-.4-.01v5.312q0,.551.312.713a3.936,3.936,0,0,0,1.448.161,5.424,5.424,0,0,0,2.739-.635" transform="translate(-58.862 -500.098)"/><path class="f" d="M138.936,659.493a3.547,3.547,0,0,0,1.687-.388q.386-.3.386-1.528v-9.488a2.076,2.076,0,0,0-.386-1.516,3.022,3.022,0,0,0-1.687-.4v-.4h6.312v.4a3.024,3.024,0,0,0-1.687.4,2.079,2.079,0,0,0-.385,1.516v9.488q0,1.233.385,1.528a3.55,3.55,0,0,0,1.687.388v.4h-6.312Z" transform="translate(-107.594 -500.096)"/><path class="f" d="M194.065,659.495a3.135,3.135,0,0,0,1.52-.419q.355-.3.354-1.5V648.09a2.22,2.22,0,0,0-.343-1.5,2.642,2.642,0,0,0-1.532-.416v-.4h5.749a11.365,11.365,0,0,1,4.916.958q3.624,1.719,3.624,6.145a7.25,7.25,0,0,1-.651,3.03,6.2,6.2,0,0,1-1.962,2.427,6.681,6.681,0,0,1-1.728.948,11.691,11.691,0,0,1-4.021.6h-5.926Zm4.3-.562a2.192,2.192,0,0,0,1.057.167,7.763,7.763,0,0,0,4.114-.99q2.478-1.522,2.479-5.2a5.988,5.988,0,0,0-2.04-4.941,7.144,7.144,0,0,0-4.636-1.418,2.06,2.06,0,0,0-.974.156q-.255.157-.255.687v10.852a.769.769,0,0,0,.255.688" transform="translate(-150.286 -500.098)"/><path class="f" d="M261.517,676.464a2.041,2.041,0,0,0,1-.274q.227-.193.227-.977v-6.191a1.453,1.453,0,0,0-.224-.969,1.652,1.652,0,0,0-1-.281v-.259h7.395l.048,1.991h-.354a1.975,1.975,0,0,0-.529-1.19,2.958,2.958,0,0,0-1.578-.27h-1.9q-.306,0-.378.1a.67.67,0,0,0-.072.37v3.105H266.3a1.643,1.643,0,0,0,1.135-.263,2.294,2.294,0,0,0,.394-1.069h.326V673.5h-.326a2.316,2.316,0,0,0-.4-1.07,1.634,1.634,0,0,0-1.129-.261h-2.148v3.445c0,.277.088.44.262.49a8.815,8.815,0,0,0,1.569.075,5.3,5.3,0,0,0,2.089-.309,2.83,2.83,0,0,0,1.211-1.5h.388l-.632,2.352h-7.524Z" transform="translate(-202.522 -516.931)"/><path class="f" d="M299.2,676.464a1.669,1.669,0,0,0,1.109-.39,2.557,2.557,0,0,0,.244-1.4V668.54l-.19-.224a1.543,1.543,0,0,0-.521-.445,2,2,0,0,0-.642-.1v-.259h2.376l5.372,6.66v-4.626a2.228,2.228,0,0,0-.34-1.485,1.717,1.717,0,0,0-.993-.29v-.259h3.269v.259a1.616,1.616,0,0,0-1.06.387,2.4,2.4,0,0,0-.265,1.4v7.326h-.238l-6.158-7.632v5.418a2.275,2.275,0,0,0,.333,1.487,1.691,1.691,0,0,0,.973.305v.259H299.2Z" transform="translate(-231.708 -516.931)"/><path class="f" d="M344,667.515h7.87l.075,2.365h-.334a2.835,2.835,0,0,0-.622-1.451,2.552,2.552,0,0,0-1.587-.336h-.774v7.122q0,.805.251,1a2.323,2.323,0,0,0,1.1.253v.258H345.92v-.258a1.926,1.926,0,0,0,1.1-.29,1.822,1.822,0,0,0,.218-1.123v-6.959h-.782a2.653,2.653,0,0,0-1.572.333,2.462,2.462,0,0,0-.629,1.454h-.34Z" transform="translate(-266.332 -516.931)"/><path class="f" d="M376.758,676.164v-.258a1.129,1.129,0,0,0,.806-.4,11.14,11.14,0,0,0,.92-1.879l2.9-6.83h.276l3.468,7.891a3.329,3.329,0,0,0,.554.969,1.319,1.319,0,0,0,.7.253v.258h-3.539v-.258a3.126,3.126,0,0,0,.787-.132c.118-.052.177-.18.177-.382a1.7,1.7,0,0,0-.068-.359,4.011,4.011,0,0,0-.19-.541l-.557-1.339h-3.669q-.542,1.366-.647,1.667a1.54,1.54,0,0,0-.106.477.493.493,0,0,0,.285.487,2.285,2.285,0,0,0,.665.121v.258Zm5.994-3.575-1.594-3.833-1.6,3.833Z" transform="translate(-291.766 -516.371)"/><path class="f" d="M421.1,676.464a2.04,2.04,0,0,0,1-.274q.227-.193.227-.977v-6.191a1.451,1.451,0,0,0-.224-.969,1.65,1.65,0,0,0-1-.281v-.259h3.929v.259a1.917,1.917,0,0,0-1.03.251,1.148,1.148,0,0,0-.263.9v6.687a.723.723,0,0,0,.079.364.439.439,0,0,0,.344.167c.1.013.215.022.331.027s.332.007.649.007a6.811,6.811,0,0,0,2.511-.306,3.2,3.2,0,0,0,1.266-1.564h.353l-.681,2.413H421.1Z" transform="translate(-326.101 -516.931)"/><path class="f" d="M483.354,645.011a11.784,11.784,0,0,0,1.364.345,1.074,1.074,0,0,0,.573-.167.871.871,0,0,0,.375-.521h.448l.2,4.792h-.489a6.909,6.909,0,0,0-1.115-2.3,4.279,4.279,0,0,0-3.531-1.646,4.486,4.486,0,0,0-3.661,1.77,7.586,7.586,0,0,0-1.421,4.875,6.656,6.656,0,0,0,1.495,4.556,4.816,4.816,0,0,0,3.786,1.7,6.081,6.081,0,0,0,3.052-.791,9.147,9.147,0,0,0,1.76-1.354l.4.4a7.159,7.159,0,0,1-1.76,1.573,7.573,7.573,0,0,1-9.342-1.052,7.213,7.213,0,0,1-1.865-5.072,7.383,7.383,0,0,1,1.968-5.228,7.041,7.041,0,0,1,5.4-2.219,8.742,8.742,0,0,1,2.375.344" transform="translate(-366.774 -499.238)"/><path class="f" d="M535.019,676.464a2.04,2.04,0,0,0,1-.274q.227-.193.227-.977v-6.191a1.454,1.454,0,0,0-.224-.969,1.652,1.652,0,0,0-1-.281v-.259h7.4l.047,1.991h-.354a1.977,1.977,0,0,0-.529-1.19,2.957,2.957,0,0,0-1.577-.27h-1.9q-.306,0-.378.1a.668.668,0,0,0-.072.37v3.105H539.8a1.642,1.642,0,0,0,1.135-.263,2.291,2.291,0,0,0,.394-1.069h.326V673.5h-.326a2.317,2.317,0,0,0-.4-1.07,1.634,1.634,0,0,0-1.129-.261h-2.148v3.445c0,.277.088.44.262.49a8.816,8.816,0,0,0,1.569.075,5.3,5.3,0,0,0,2.089-.309,2.831,2.831,0,0,0,1.211-1.5h.388l-.632,2.352h-7.524Z" transform="translate(-414.325 -516.931)"/><path class="f" d="M572.707,676.464a1.668,1.668,0,0,0,1.108-.39,2.554,2.554,0,0,0,.244-1.4V668.54l-.19-.224a1.543,1.543,0,0,0-.521-.445,2,2,0,0,0-.642-.1v-.259h2.376l5.372,6.66v-4.626a2.228,2.228,0,0,0-.34-1.485,1.717,1.717,0,0,0-.993-.29v-.259h3.27v.259a1.615,1.615,0,0,0-1.06.387,2.392,2.392,0,0,0-.265,1.4v7.326h-.238l-6.158-7.632v5.418a2.274,2.274,0,0,0,.333,1.487,1.69,1.69,0,0,0,.972.305v.259h-3.269Z" transform="translate(-443.511 -516.931)"/><path class="f" d="M617.5,667.515h7.87l.075,2.365h-.333a2.835,2.835,0,0,0-.622-1.451,2.551,2.551,0,0,0-1.586-.336h-.774v7.122q0,.805.25,1a2.324,2.324,0,0,0,1.1.253v.258h-4.057v-.258a1.929,1.929,0,0,0,1.1-.29,1.824,1.824,0,0,0,.217-1.123v-6.959h-.782a2.655,2.655,0,0,0-1.573.333,2.464,2.464,0,0,0-.629,1.454h-.339Z" transform="translate(-478.136 -516.931)"/><path class="f" d="M654.952,676.464a2.042,2.042,0,0,0,1-.274q.227-.193.227-.977v-6.191a1.454,1.454,0,0,0-.224-.969,1.653,1.653,0,0,0-1-.281v-.259h7.394l.048,1.991h-.354a1.974,1.974,0,0,0-.529-1.19,2.958,2.958,0,0,0-1.577-.27h-1.9q-.306,0-.378.1a.668.668,0,0,0-.072.37v3.105h2.148a1.642,1.642,0,0,0,1.135-.263,2.292,2.292,0,0,0,.394-1.069h.326V673.5h-.326a2.32,2.32,0,0,0-.4-1.07,1.635,1.635,0,0,0-1.129-.261h-2.148v3.445c0,.277.088.44.262.49a8.815,8.815,0,0,0,1.569.075,5.292,5.292,0,0,0,2.089-.309,2.829,2.829,0,0,0,1.211-1.5h.388l-.632,2.352h-7.524Z" transform="translate(-507.202 -516.931)"/><path class="f" d="M692.64,676.466a1.576,1.576,0,0,0,1-.311,1.963,1.963,0,0,0,.2-1.1v-6.028a1.449,1.449,0,0,0-.221-.962,1.618,1.618,0,0,0-.975-.289v-.259h3.854a5.687,5.687,0,0,1,2.005.305,2.12,2.12,0,0,1,1.523,2.124,1.947,1.947,0,0,1-.677,1.595,3.718,3.718,0,0,1-1.839.734l2.868,3.532a1.944,1.944,0,0,0,.531.472,1.729,1.729,0,0,0,.679.188v.258h-2.241l-3.482-4.288-.61.034v2.743q0,.773.235.979a1.938,1.938,0,0,0,1.023.274v.258H692.64Zm4.758-4.825a1.691,1.691,0,0,0,1.107-1.71,1.64,1.64,0,0,0-.991-1.648,3.5,3.5,0,0,0-1.407-.237,1.772,1.772,0,0,0-.724.085c-.088.056-.132.189-.132.4v3.426a7.038,7.038,0,0,0,2.148-.313" transform="translate(-536.388 -516.931)"/></g></svg>