<svg xmlns="http://www.w3.org/2000/svg" xmlns:xlink="http://www.w3.org/1999/xlink" width="217.147" height="84.086" viewBox="0 0 217.147 84.086"><defs><style>.a{fill:none;}.b{clip-path:url(#a);}.c{fill:#f7baae;}.d{fill:#464545;}.e{fill:#fff;}.f{fill:#a3a3a3;}</style><clipPath id="a"><rect class="a" width="217.147" height="84.086"/></clipPath></defs><g transform="translate(0)"><g class="b" transform="translate(0)"><path class="c" d="M218.125,38.314a206.048,206.048,0,0,0-2.059-20.663c-71.227-30.467-105.275-2.47-105.275-2.47s-34.048-28-105.275,2.47A206.055,206.055,0,0,0,3.458,38.314C3.046,48.53,9.056,49.779,9.327,52.7L26.285,72.209h32.1c.442-1.472.772-2.568.845-2.873.261-1.1,7.637-21.031,7.637-21.031s1.62,14.93,5.595,10.417,24.8-7.275,25.412-6.6,8.573,4.116,8.573,4.116,4.557,10.486,8.736,1.2,16.26-5.258,16.26-5.258l17.608,4.595s2.7,4.419,4.793-1.987,9.031-2.812,9.031-2.812l11.038.817-.4,19.412H199L212.256,52.7c.271-2.923,6.281-4.173,5.87-14.388" transform="translate(-2.218 -2.218)"/><path class="d" d="M196.779,71.209H171.292a1.219,1.219,0,0,1-1.219-1.244l.375-18.256-9.885-.732a1.221,1.221,0,0,1-.471-.133,8.874,8.874,0,0,0-3.517-.868c-1.926,0-3.131.946-3.794,2.976-.348,1.067-1.409,4.313-3.874,4.313a3.82,3.82,0,0,1-2.815-1.637l-17.178-4.483-.078-.023a19.437,19.437,0,0,0-5.431-.806c-4.577,0-7.716,1.819-9.331,5.408-1.36,3.022-3.017,4.555-4.923,4.555-2.985,0-5.151-3.91-5.837-5.324a69.231,69.231,0,0,1-8.186-3.927c-.057,0-.134,0-.238,0-4.458,0-20.689,2.829-23.735,6.287a3.183,3.183,0,0,1-2.361,1.263c-1.9,0-3.289-2.088-4.358-6.57-.092-.384-.176-.766-.254-1.142-2.716,7.368-5.8,15.8-5.988,16.543-.074.313-.335,1.183-.828,2.824l-.034.115a1.22,1.22,0,0,1-1.168.868h-32.1a1.219,1.219,0,0,1-.92-.419L6.189,51.283a1.216,1.216,0,0,1-.294-.688c-.052-.56-.649-1.21-1.4-2.032C2.593,46.5-.275,43.376.021,36.046c.41-10.169,2.056-20.7,2.073-20.8a1.221,1.221,0,0,1,.725-.931C25.018,4.815,45.9,0,64.882,0c26.06,0,40.308,8.994,43.691,11.432C111.956,8.993,126.2,0,152.264,0c18.983,0,39.864,4.815,62.064,14.311a1.22,1.22,0,0,1,.725.931c.016.105,1.663,10.635,2.073,20.8.3,7.33-2.572,10.452-4.47,12.517-.756.822-1.352,1.472-1.4,2.032a1.218,1.218,0,0,1-.205.573L197.787,70.675a1.219,1.219,0,0,1-1.009.534M172.537,68.77h23.6l12.739-18.742a6.794,6.794,0,0,1,1.988-3.115c1.723-1.876,4.083-4.445,3.828-10.769-.346-8.57-1.582-17.4-1.945-19.857C191.083,7.1,170.737,2.439,152.264,2.439c-28.565,0-42.777,11.351-42.917,11.466a1.222,1.222,0,0,1-1.548,0C107.66,13.79,93.442,2.439,64.882,2.439,46.409,2.439,26.064,7.1,4.4,16.287,4.04,18.741,2.8,27.578,2.458,36.144,2.2,42.468,4.563,45.037,6.287,46.913a6.969,6.969,0,0,1,1.97,3.032L24.622,68.77H55.256c.29-.963.516-1.725.566-1.935C56.086,65.719,62.265,49,63.5,45.663a1.22,1.22,0,0,1,2.356.291C66.4,50.9,67.83,55.84,68.811,56.135a1.634,1.634,0,0,0,.514-.438c4.085-4.639,22.425-7.114,25.565-7.114a2.158,2.158,0,0,1,1.617.451,89.8,89.8,0,0,0,8.2,3.867,1.218,1.218,0,0,1,.634.633c.759,1.735,2.493,4.305,3.807,4.305.823,0,1.807-1.136,2.7-3.117,2.016-4.478,6.011-6.845,11.555-6.845a21.723,21.723,0,0,1,6.159.917l17.573,4.586a1.222,1.222,0,0,1,.733.544c.259.414.771.9,1.038.9.181,0,.854-.484,1.556-2.632a6.156,6.156,0,0,1,6.113-4.658,11.2,11.2,0,0,1,4.4,1.025l10.809.8a1.22,1.22,0,0,1,1.129,1.241Z" transform="translate(0 0)"/><path class="e" d="M34,144.435s-5.987-6.9-9.969-10.012-4.415,1.01-3.722,5.006,2.077,12.306,3.9,19.664,6.059,13.068,11.773,7.659,7.263-12.9-1.976-22.317" transform="translate(-12.928 -86.022)"/><path class="d" d="M29.386,167.89h0c-3.774,0-6.9-3.909-8.589-10.723s-3.02-14.567-3.737-18.729l-.176-1.019c-.383-2.21-.579-5.154.663-6.629a2.454,2.454,0,0,1,1.931-.9,5.212,5.212,0,0,1,3.082,1.354c3.939,3.083,9.633,9.593,10.114,10.145,4.672,4.771,7,9.439,6.917,13.877-.067,3.661-1.75,7.077-5,10.154a7.711,7.711,0,0,1-5.206,2.471m-9.908-35.561a.151.151,0,0,0-.04,0c-.227.146-.7,1.528-.151,4.67l.176,1.022c.712,4.131,2.037,11.822,3.7,18.558,1.351,5.47,3.735,8.869,6.221,8.869a5.431,5.431,0,0,0,3.529-1.8c2.757-2.61,4.182-5.445,4.237-8.428.07-3.767-2.032-7.855-6.246-12.15-.017-.017-.034-.036-.05-.054-.059-.068-5.957-6.844-9.8-9.852-.991-.775-1.459-.836-1.578-.836" transform="translate(-10.706 -83.804)"/><path class="e" d="M71.323,120.753s-5.745-11.314-8.555-15.057-8.287-5.864-11.182-1.622-5.852,25.2-4.429,32.44,6.029,12.756,12.977,8.188,16.956-11.386,11.189-23.948" transform="translate(-30.187 -65.637)"/><path class="d" d="M53.1,145.369h0c-4.461,0-8.05-4.153-9.364-10.838-1.48-7.527,1.455-28.729,4.618-33.363a6.176,6.176,0,0,1,5.262-2.873c2.772,0,5.874,1.747,7.9,4.45,2.841,3.785,8.431,14.772,8.667,15.237l.021.044c6.288,13.7-4.927,21.07-11.627,25.476a10.054,10.054,0,0,1-5.48,1.867m.515-44.635a3.786,3.786,0,0,0-3.247,1.809c-2.579,3.779-5.677,24.2-4.239,31.517.843,4.288,3.117,8.869,6.971,8.869h0a7.7,7.7,0,0,0,4.14-1.466c6.433-4.23,16.152-10.62,10.76-22.4-.282-.555-5.775-11.317-8.432-14.856-1.56-2.079-3.953-3.476-5.953-3.476" transform="translate(-27.964 -63.419)"/><path class="e" d="M102.04,130.44c-2.056,8.505,25.249,15.107,27.305,6.6,3.556-14.705,2.545-34.358-5.663-36.343-11.439-2.766-18.087,15.035-21.642,29.74" transform="translate(-65.764 -64.786)"/><path class="d" d="M118.859,140h0c-6.408,0-15.473-2.731-18.944-7.142a5.67,5.67,0,0,1-1.274-4.926c4.967-20.543,11.862-30.96,20.493-30.96a11.192,11.192,0,0,1,2.621.321c4.342,1.05,7.166,6.044,8.168,14.442a69.99,69.99,0,0,1-1.606,23.372c-.763,3.155-4.121,4.892-9.457,4.892m.274-40.588c-9.164,0-14.913,15.822-18.123,29.094a3.248,3.248,0,0,0,.82,2.844c2.649,3.366,10.447,6.211,17.028,6.211h0c1.911,0,6.426-.3,7.086-3.026,3.562-14.731,2.257-33.173-4.765-34.871a8.735,8.735,0,0,0-2.048-.253" transform="translate(-63.549 -62.567)"/><path class="e" d="M235.66,129.89c1.529,8.689-34.625,15.051-36.154,6.362-2.644-15.024-3.844-39.024,11.3-41.689s22.209,20.3,24.853,35.327" transform="translate(-127.68 -60.874)"/><path class="d" d="M196.09,134.235c-2.1-11.939-5.108-40.039,12.291-43.1s24.165,24.378,26.265,36.317c1,5.7-9.027,9.545-17.92,11.11s-19.634,1.371-20.636-4.326m1.387-25.5c-1.379,8.965.045,19.563,1.016,25.082.524,2.981,8.348,4.011,17.811,2.346s16.465-5.3,15.941-8.285c-.971-5.519-3.251-15.966-7.607-23.923-4.374-7.99-9.7-11.494-15.834-10.415s-9.943,6.191-11.327,15.194" transform="translate(-125.466 -58.646)"/><path class="e" d="M540.629,144.435s5.987-6.9,9.969-10.012,4.415,1.01,3.722,5.006-2.078,12.306-3.9,19.664-6.059,13.068-11.772,7.659-7.263-12.9,1.976-22.317" transform="translate(-344.554 -86.022)"/><path class="d" d="M535.6,165.42c-3.25-3.077-4.932-6.493-5-10.154-.082-4.438,2.245-9.106,6.917-13.877.48-.552,6.174-7.062,10.114-10.145a5.211,5.211,0,0,1,3.081-1.354,2.453,2.453,0,0,1,1.931.9c1.242,1.476,1.046,4.419.663,6.629l-.176,1.019c-.717,4.162-2.052,11.908-3.737,18.729s-4.814,10.723-8.588,10.723h0a7.708,7.708,0,0,1-5.206-2.471m13.535-32.255c-3.843,3.007-9.741,9.783-9.8,9.852-.016.018-.033.037-.05.054-4.214,4.295-6.315,8.383-6.245,12.15.055,2.983,1.48,5.818,4.237,8.428a5.431,5.431,0,0,0,3.529,1.8c2.486,0,4.87-3.4,6.221-8.869,1.664-6.736,2.989-14.427,3.7-18.558L550.9,137c.545-3.141.076-4.524-.15-4.67a.172.172,0,0,0-.04,0c-.12,0-.588.06-1.578.836" transform="translate(-342.336 -83.805)"/><path class="e" d="M492.945,120.753s5.745-11.314,8.555-15.057,8.287-5.864,11.182-1.622,5.852,25.2,4.428,32.44-6.029,12.756-12.977,8.188-16.956-11.386-11.189-23.948" transform="translate(-316.934 -65.637)"/><path class="d" d="M501.213,143.5c-6.7-4.406-17.914-11.78-11.627-25.476l.021-.044c.236-.465,5.826-11.453,8.667-15.237,2.03-2.7,5.132-4.45,7.9-4.45a6.175,6.175,0,0,1,5.261,2.873c3.163,4.633,6.1,25.836,4.618,33.363-1.314,6.685-4.9,10.837-9.364,10.838h0a10.054,10.054,0,0,1-5.48-1.867m-.988-39.292c-2.657,3.54-8.15,14.3-8.433,14.856-5.391,11.778,4.328,18.168,10.761,22.4a7.692,7.692,0,0,0,4.139,1.466h0c3.854,0,6.128-4.582,6.971-8.869,1.438-7.313-1.66-27.739-4.239-31.517a3.786,3.786,0,0,0-3.247-1.809c-2,0-4.392,1.4-5.953,3.476" transform="translate(-314.683 -63.419)"/><path class="e" d="M456.585,130.44c2.056,8.505-25.249,15.107-27.305,6.6-3.556-14.705-2.545-34.358,5.664-36.343,11.439-2.766,18.086,15.035,21.642,29.74" transform="translate(-275.714 -64.786)"/><path class="d" d="M425.879,135.111a69.976,69.976,0,0,1-1.606-23.373c1-8.4,3.825-13.392,8.168-14.442a11.189,11.189,0,0,1,2.621-.321c8.631,0,15.526,10.416,20.493,30.96a5.67,5.67,0,0,1-1.274,4.926C450.81,137.271,441.745,140,435.337,140h0c-5.335,0-8.694-1.738-9.456-4.892m7.135-35.444c-7.021,1.7-8.327,20.139-4.765,34.871.661,2.731,5.175,3.026,7.086,3.026h0c6.581,0,14.379-2.844,17.028-6.211a3.248,3.248,0,0,0,.82-2.844c-3.209-13.272-8.959-29.094-18.122-29.094a8.738,8.738,0,0,0-2.048.253" transform="translate(-273.498 -62.567)"/><path class="e" d="M312.288,132.024c-.5,8.808,36.145,10.906,36.65,2.1.872-15.23-.737-39.206-16.091-40.084s-19.687,22.757-20.559,37.987" transform="translate(-201.482 -60.657)"/><path class="d" d="M327.946,138.677c-9.015-.516-19.425-3.167-19.1-8.942.693-12.1,4.209-40.144,21.847-39.135s17.931,29.269,17.238,41.372c-.331,5.775-10.976,7.221-19.99,6.705m2.613-45.642c-6.217-.356-11.1,3.746-14.51,12.192-3.4,8.41-4.442,19.052-4.762,24.647-.173,3.022,7.206,5.819,16.8,6.368s17.243-1.388,17.416-4.41c.32-5.595.5-16.286-1.919-25.029-2.426-8.78-6.807-13.412-13.024-13.768" transform="translate(-199.263 -58.437)"/><path class="f" d="M356.873,164.249a2.839,2.839,0,0,1-3.013,2.652l-14.741-.941a2.839,2.839,0,0,1-2.652-3.013l.456-7.149a2.838,2.838,0,0,1,3.013-2.652l14.741.94a2.839,2.839,0,0,1,2.652,3.014Z" transform="translate(-217.081 -98.805)"/><path class="f" d="M461.8,163.091c.362,1.525-.2,2.963-1.243,3.211l-9.872,2.339c-1.048.248-2.19-.787-2.551-2.313l-1.651-6.971c-.361-1.526.195-2.963,1.243-3.212l9.872-2.339c1.048-.248,2.19.787,2.552,2.313Z" transform="translate(-287.996 -99.211)"/><path class="f" d="M530.391,169.6c0,1.568-.873,2.838-1.95,2.838h-8.017c-1.077,0-1.95-1.271-1.95-2.838v-7.164c0-1.568.873-2.838,1.95-2.838h8.017c1.077,0,1.95,1.271,1.95,2.838Z" transform="translate(-334.516 -102.97)"/><path class="f" d="M577.213,169.6c0,1.568-.618,2.838-1.382,2.838h-5.68c-.763,0-1.382-1.271-1.382-2.838v-7.164c0-1.568.619-2.838,1.382-2.838h5.68c.763,0,1.382,1.271,1.382,2.838Z" transform="translate(-366.965 -102.97)"/><path class="d" d="M320.516,159.986l.2-3.2a1.22,1.22,0,0,1,2.435.155l-.2,3.2.267.017,8.485.541.2-3.2a1.22,1.22,0,0,1,2.434.155l-.2,3.2L360.091,162l-.74-3.123a1.22,1.22,0,0,1,2.374-.562l.74,3.123,4.082-.967-.74-3.123a1.22,1.22,0,0,1,2.374-.562l.74,3.123,11.41,2.333h4.789v-3.209a1.22,1.22,0,0,1,2.439,0v3.209h2.421v-3.209a1.22,1.22,0,0,1,2.439,0v3.209h9.1v-3.209a1.22,1.22,0,0,1,2.44,0v3.209h1.005v-3.209a1.22,1.22,0,0,1,2.439,0v8.858a1.22,1.22,0,1,1-2.439,0v-3.21h-1.005v3.21a1.22,1.22,0,1,1-2.44,0v-3.21h-9.1v3.21a1.22,1.22,0,1,1-2.439,0v-3.21h-2.421v3.21a1.22,1.22,0,1,1-2.439,0v-3.21h-4.789l-10.847-2.4.74,3.123a1.22,1.22,0,0,1-2.374.562l-.74-3.123-4.082.967.74,3.123a1.219,1.219,0,1,1-2.373.562l-.74-3.123-26.672-1.089-.2,3.2a1.22,1.22,0,1,1-2.434-.155l.2-3.2-8.485-.541-.267-.017-.2,3.2a1.22,1.22,0,0,1-2.435-.155l.2-3.2-14.355,2.264v-2.439Z" transform="translate(-197.432 -100.418)"/><path class="f" d="M219.611,163.58a2.839,2.839,0,0,0,3.593,1.79l14.007-4.689a2.839,2.839,0,0,0,1.79-3.593l-2.274-6.793a2.838,2.838,0,0,0-3.593-1.79l-14.007,4.69a2.838,2.838,0,0,0-1.79,3.593Z" transform="translate(-140.128 -95.718)"/><path class="f" d="M121.955,163.091c-.362,1.525.2,2.963,1.243,3.211l9.873,2.339c1.048.248,2.19-.787,2.551-2.313l1.651-6.971c.362-1.526-.195-2.963-1.243-3.212l-9.872-2.339c-1.048-.248-2.19.787-2.552,2.313Z" transform="translate(-78.613 -99.211)"/><path class="f" d="M59.952,169.6c0,1.568.873,2.838,1.95,2.838h8.017c1.077,0,1.95-1.271,1.95-2.838v-7.164c0-1.568-.873-2.838-1.95-2.838H61.9c-1.077,0-1.95,1.271-1.95,2.838Z" transform="translate(-38.68 -102.97)"/><path class="f" d="M19.444,169.6c0,1.568.618,2.838,1.382,2.838h5.68c.763,0,1.382-1.271,1.382-2.838v-7.164c0-1.568-.618-2.838-1.382-2.838h-5.68c-.763,0-1.382,1.271-1.382,2.838Z" transform="translate(-12.545 -102.97)"/><path class="d" d="M107.168,156.126l-1.019-3.043a1.22,1.22,0,0,0-2.313.775l1.019,3.043-.253.085-8.063,2.7-1.019-3.043a1.22,1.22,0,1,0-2.313.774l1.019,3.043-26.693-.643.74-3.123a1.22,1.22,0,1,0-2.373-.562l-.74,3.123-4.082-.967.74-3.123a1.22,1.22,0,0,0-2.374-.562l-.74,3.123-11.41,2.333H42.5v-3.209a1.22,1.22,0,1,0-2.439,0v3.209H37.643v-3.209a1.22,1.22,0,1,0-2.439,0v3.209H26.1v-3.209a1.22,1.22,0,1,0-2.439,0v3.209H22.656v-3.209a1.22,1.22,0,1,0-2.439,0v8.858a1.22,1.22,0,0,0,2.439,0V162.5h1.005v3.21a1.22,1.22,0,0,0,2.439,0V162.5h9.1v3.21a1.22,1.22,0,0,0,2.439,0V162.5h2.422v3.21a1.22,1.22,0,0,0,2.439,0V162.5h4.789l10.848-2.4-.74,3.123a1.22,1.22,0,0,0,2.374.562l.74-3.123,4.082.967-.74,3.123a1.22,1.22,0,0,0,2.374.562l.74-3.123,28.03.583,1.019,3.044a1.22,1.22,0,1,0,2.313-.775L97.313,162l8.062-2.7.254-.085,1.019,3.044a1.22,1.22,0,0,0,2.313-.775l-1.019-3.043,13.675,4.057v-2.439Z" transform="translate(-13.044 -98.23)"/></g></g></svg>