<svg xmlns="http://www.w3.org/2000/svg" xmlns:xlink="http://www.w3.org/1999/xlink" width="217.147" height="89.657" viewBox="0 0 217.147 89.657"><defs><style>.a{fill:none;}.b{clip-path:url(#a);}.c{fill:#f7baae;}.d{fill:#464545;}.e{fill:#fff;}.f{opacity:0.75;}.g{clip-path:url(#c);}.h{fill:#e8e8e8;}</style><clipPath id="a"><rect class="a" width="217.147" height="89.657"/></clipPath><clipPath id="c"><rect class="a" width="214.232" height="49.142"/></clipPath></defs><g class="b" transform="translate(0)"><g class="b"><path class="c" d="M212.256,52.7c.27-2.923,6.281-4.173,5.869-14.388a205.967,205.967,0,0,0-2.059-20.663c-71.227-30.468-105.275-2.47-105.275-2.47s-34.048-28-105.275,2.47A206.189,206.189,0,0,0,3.457,38.313C3.045,48.528,9.056,49.778,9.326,52.7L26.284,72.208H199Z" transform="translate(-2.217 -2.218)"/><path class="d" d="M196.779,71.21H24.066a1.22,1.22,0,0,1-.92-.42L6.188,51.284a1.22,1.22,0,0,1-.294-.688c-.052-.56-.649-1.21-1.4-2.032C2.593,46.5-.275,43.376.021,36.046c.41-10.169,2.056-20.7,2.072-20.8a1.22,1.22,0,0,1,.725-.931C25.018,4.815,45.9,0,64.882,0c26.06,0,40.308,8.994,43.691,11.432C111.957,8.993,126.2,0,152.264,0c18.983,0,39.864,4.815,62.064,14.311a1.22,1.22,0,0,1,.725.931c.017.105,1.663,10.635,2.073,20.8.3,7.33-2.572,10.452-4.47,12.517-.756.823-1.353,1.472-1.4,2.032a1.222,1.222,0,0,1-.206.573L197.788,70.675a1.219,1.219,0,0,1-1.009.534M24.622,68.77H196.133l12.739-18.742a6.793,6.793,0,0,1,1.988-3.115c1.723-1.876,4.083-4.445,3.829-10.768-.346-8.57-1.582-17.4-1.945-19.857C191.083,7.1,170.737,2.439,152.264,2.439c-28.565,0-42.777,11.351-42.918,11.465a1.22,1.22,0,0,1-1.547,0C107.66,13.79,93.442,2.439,64.882,2.439,46.409,2.439,26.063,7.1,4.4,16.287c-.363,2.454-1.6,11.291-1.945,19.857C2.2,42.468,4.563,45.037,6.286,46.913a6.975,6.975,0,0,1,1.97,3.031Z" transform="translate(0 0)"/><path class="e" d="M540.628,144.434s5.988-6.9,9.97-10.012,4.414,1.009,3.722,5.006-2.078,12.306-3.9,19.664-6.059,13.068-11.772,7.659-7.262-12.9,1.976-22.318" transform="translate(-344.552 -86.022)"/><path class="d" d="M540.8,167.89a7.71,7.71,0,0,1-5.206-2.471c-3.25-3.077-4.932-6.493-5-10.154-.082-4.437,2.245-9.106,6.918-13.877.481-.552,6.175-7.062,10.114-10.145a5.212,5.212,0,0,1,3.081-1.354,2.452,2.452,0,0,1,1.931.9c1.242,1.475,1.046,4.419.664,6.629l-.175,1.013c-.717,4.163-2.052,11.911-3.738,18.735s-4.814,10.723-8.589,10.723m9.908-35.561c-.12,0-.587.06-1.578.836-3.845,3.009-9.741,9.783-9.8,9.851-.016.018-.033.037-.051.055-4.214,4.295-6.315,8.383-6.245,12.15.055,2.983,1.48,5.818,4.237,8.428a5.431,5.431,0,0,0,3.529,1.8c2.486,0,4.87-3.4,6.221-8.869,1.665-6.74,2.991-14.432,3.7-18.564L550.9,137c.544-3.136.078-4.519-.154-4.671,0,0-.013,0-.036,0" transform="translate(-342.334 -83.804)"/><path class="e" d="M480.381,120.752s7.813-11.314,11.306-15.057,9.358-5.864,11.479-1.623,1.248,25.2-1.5,32.44-8.359,12.756-14.473,8.187-14.876-11.386-6.814-23.948" transform="translate(-307.844 -65.636)"/><path class="d" d="M489.5,145.368a8.7,8.7,0,0,1-5.236-1.909c-2.933-2.192-6.95-5.194-9.081-9.4-2.461-4.863-1.8-10.307,1.971-16.181l.023-.034c.321-.465,7.9-11.431,11.418-15.2,2.466-2.643,5.82-4.351,8.543-4.351a5.256,5.256,0,0,1,4.918,3.015c2.327,4.654,1.407,25.892-1.448,33.418-2.527,6.663-6.68,10.64-11.107,10.64m-10.3-26.157c-6.968,10.874-.889,16.751,6.529,22.294a6.334,6.334,0,0,0,3.776,1.423c3.972,0,7.165-4.684,8.827-9.066,2.774-7.314,3.427-27.7,1.547-31.462a2.817,2.817,0,0,0-2.736-1.667c-2.048,0-4.764,1.437-6.76,3.575-3.332,3.57-10.84,14.407-11.183,14.9" transform="translate(-305.646 -63.419)"/><path class="e" d="M437.56,133.614c0,8.75-28.092,8.75-28.092,0,0-15.129,5.6-33.994,14.046-33.994,11.769,0,14.046,18.865,14.046,33.994" transform="translate(-264.185 -64.274)"/><path class="d" d="M421.3,139.178c-7.6,0-15.266-2.406-15.266-7.782a69.983,69.983,0,0,1,3.933-23.095c2.947-7.928,6.866-12.118,11.333-12.118,5.865,0,10.1,4.1,12.6,12.183,1.768,5.725,2.664,13.473,2.664,23.03,0,5.376-7.667,7.782-15.266,7.782m0-40.556c-7.224,0-12.827,17.618-12.827,32.774,0,3.47,6.609,5.343,12.827,5.343s12.827-1.873,12.827-5.343c0-14.951-2.226-32.774-12.827-32.774" transform="translate(-261.967 -62.056)"/><path class="e" d="M34,144.434s-5.987-6.9-9.969-10.012-4.415,1.009-3.722,5.006,2.077,12.306,3.9,19.664,6.059,13.068,11.773,7.659,7.263-12.9-1.976-22.318" transform="translate(-12.928 -86.022)"/><path class="d" d="M29.385,167.89h0c-3.774,0-6.9-3.909-8.589-10.723s-3.02-14.571-3.738-18.733l-.175-1.015c-.383-2.21-.579-5.154.663-6.629a2.453,2.453,0,0,1,1.931-.9,5.212,5.212,0,0,1,3.082,1.354c3.939,3.083,9.633,9.593,10.114,10.145,4.672,4.771,7,9.44,6.918,13.877-.068,3.661-1.75,7.077-5,10.154a7.71,7.71,0,0,1-5.206,2.471m-9.908-35.561a.153.153,0,0,0-.04,0c-.227.145-.7,1.528-.151,4.67l.176,1.018c.712,4.132,2.037,11.823,3.7,18.562,1.351,5.47,3.735,8.869,6.221,8.869a5.429,5.429,0,0,0,3.53-1.8c2.757-2.61,4.183-5.445,4.237-8.428.07-3.767-2.031-7.854-6.246-12.15-.017-.018-.034-.036-.05-.055-.059-.068-5.958-6.844-9.8-9.851-.991-.776-1.459-.836-1.578-.836" transform="translate(-10.705 -83.804)"/><path class="e" d="M82.148,120.752S74.335,109.438,70.842,105.7s-9.358-5.864-11.479-1.623-1.247,25.2,1.5,32.44,8.36,12.756,14.473,8.187,14.876-11.386,6.814-23.948" transform="translate(-37.537 -65.636)"/><path class="d" d="M68.6,145.368h0c-4.428,0-8.58-3.979-11.107-10.64-2.855-7.526-3.775-28.764-1.448-33.418a5.256,5.256,0,0,1,4.918-3.015c2.724,0,6.077,1.707,8.543,4.351,3.514,3.765,11.1,14.731,11.417,15.2l.023.034c3.769,5.874,4.433,11.318,1.97,16.181-2.13,4.208-6.148,7.21-9.081,9.4a8.7,8.7,0,0,1-5.235,1.909m-7.638-44.634a2.817,2.817,0,0,0-2.736,1.667c-1.88,3.761-1.228,24.149,1.546,31.462,1.663,4.383,4.855,9.065,8.827,9.066h0a6.335,6.335,0,0,0,3.776-1.423c7.417-5.543,13.5-11.42,6.529-22.3-.345-.5-7.851-11.333-11.182-14.9-2-2.139-4.713-3.575-6.76-3.575" transform="translate(-35.306 -63.419)"/><path class="e" d="M123.366,133.614c0,8.75,28.092,8.75,28.092,0,0-15.129-5.6-33.994-14.046-33.994-11.769,0-14.046,18.865-14.046,33.994" transform="translate(-79.595 -64.274)"/><path class="d" d="M135.195,139.178c-7.6,0-15.266-2.406-15.266-7.782,0-9.557.9-17.305,2.664-23.03,2.5-8.084,6.736-12.183,12.6-12.183,4.467,0,8.386,4.19,11.333,12.118a69.992,69.992,0,0,1,3.933,23.095c0,5.376-7.667,7.782-15.266,7.782m0-40.556c-10.6,0-12.827,17.823-12.827,32.774,0,3.47,6.608,5.343,12.827,5.343s12.827-1.873,12.827-5.343c0-15.156-5.6-32.774-12.827-32.774" transform="translate(-77.377 -62.056)"/><path class="e" d="M342.715,133.086c0,8.823-36.71,8.823-36.71,0,0-15.254,2.977-39.1,18.355-39.1s18.355,23.845,18.355,39.1" transform="translate(-197.431 -60.639)"/><path class="d" d="M322.143,138.705c-9.03,0-19.575-2.052-19.575-7.836,0-12.123,1.907-40.319,19.575-40.319s19.574,28.2,19.574,40.319c0,5.784-10.545,7.836-19.574,7.836m0-45.716c-6.227,0-10.866,4.374-13.789,13-2.912,8.59-3.346,19.275-3.346,24.878,0,3.027,7.527,5.4,17.136,5.4s17.135-2.371,17.135-5.4c0-5.6-.435-16.288-3.346-24.878-2.923-8.627-7.563-13-13.789-13" transform="translate(-195.214 -58.422)"/><path class="e" d="M202.542,133.086c0,8.823,36.71,8.823,36.71,0,0-15.254-2.977-39.1-18.355-39.1s-18.355,23.845-18.355,39.1" transform="translate(-130.678 -60.639)"/><path class="d" d="M218.679,138.705c-9.03,0-19.574-2.052-19.574-7.836,0-12.123,1.907-40.319,19.574-40.319s19.575,28.2,19.575,40.319c0,5.784-10.545,7.836-19.575,7.836m0-45.716c-6.226,0-10.866,4.374-13.789,13-2.911,8.59-3.346,19.274-3.346,24.878,0,3.027,7.527,5.4,17.135,5.4s17.136-2.371,17.136-5.4c0-5.6-.435-16.288-3.346-24.878-2.924-8.627-7.563-13-13.789-13" transform="translate(-128.461 -58.422)"/><g class="f" transform="translate(1.332 40.515)"><g class="g"><path class="e" d="M212.494,124.4a58.542,58.542,0,0,0-7.429-1.9c-4.239-.836-9.753-1.627-16.92-2.318-4.442-.429-9.52-.82-15.322-1.16-3.81-.223-7.933-.425-12.395-.6-5.662-.224-11.868-.406-18.672-.54q-8.777-.172-18.912-.233-4.723-.027-9.755-.028-4.9,0-9.5.026c-6.764.038-13.053.116-18.9.23-6.808.132-13.021.313-18.69.535-4.448.174-8.56.373-12.364.594-5.814.338-10.9.726-15.36,1.153-7.136.683-12.647,1.464-16.9,2.29a46.407,46.407,0,0,0-10.032,2.862c-3.27,1.486-4.024,2.936-4.135,4.082a3.956,3.956,0,0,0,0,.679,19.523,19.523,0,0,0,.3,2.793l.179,1.04c.74,4.3,2.119,12.3,3.861,19.349s4.97,11.071,8.867,11.071h0a7.962,7.962,0,0,0,5.375-2.551,19.571,19.571,0,0,0,2.7-3.12,9.731,9.731,0,0,0,7.011,3.464h0a8.984,8.984,0,0,0,5.405-1.971,53.4,53.4,0,0,0,5.168-4.238c2.375,3.352,8.583,4.887,14.749,4.887,5.246,0,10.519-1.113,13.441-3.508,1.489,4.967,11.412,6.772,20.011,6.772,7.421,0,15.827-1.345,18.95-4.9,3.123,3.56,11.529,4.9,18.95,4.9,8.6,0,18.523-1.805,20.012-6.772,2.921,2.4,8.2,3.508,13.441,3.508,6.166,0,12.374-1.536,14.749-4.887a53.384,53.384,0,0,0,5.167,4.239,8.989,8.989,0,0,0,5.406,1.971c2.918,0,5.719-1.675,8.043-4.675a21.029,21.029,0,0,0,1.666,1.766,7.962,7.962,0,0,0,5.375,2.551c3.9,0,7.129-4.035,8.867-11.071,1.742-7.052,3.121-15.055,3.861-19.354l.179-1.035,0-.024.02-.038c.005-.056.011-.115.015-.174.106-1.427-.294-3.566-6.479-5.67" transform="translate(-5.972 -116.406)"/><path class="h" d="M210.67,121.027a60.334,60.334,0,0,0-7.585-1.937c-4.553-.9-10.285-1.684-17.039-2.336-4.591-.443-9.762-.835-15.368-1.163-3.874-.227-8.053-.43-12.418-.6-5.785-.228-12.075-.409-18.7-.54-5.946-.117-12.315-.2-18.929-.233-6.293-.036-13.078-.036-19.269,0-6.6.037-12.97.114-18.922.23-6.624.129-12.92.309-18.714.535-4.339.17-8.507.37-12.386.6-5.612.326-10.795.715-15.405,1.156-6.73.644-12.454,1.42-17.014,2.306a48.4,48.4,0,0,0-10.3,2.949c-3.063,1.393-4.648,3.053-4.844,5.076a5.076,5.076,0,0,0-.006.856,20.606,20.606,0,0,0,.312,2.94l.179,1.041c.743,4.314,2.126,12.343,3.878,19.434,1.884,7.625,5.548,12,10.051,12a9.12,9.12,0,0,0,6.213-2.884,21.988,21.988,0,0,0,2.006-2.164,10.363,10.363,0,0,0,6.866,2.842,10.173,10.173,0,0,0,6.135-2.214c1.28-.957,2.82-2.107,4.339-3.462C46.54,158.2,51.942,159.8,58.6,159.8c5.3,0,9.909-1.042,12.949-2.894,3.578,5.687,16.4,6.158,20.5,6.158,3.338,0,14.045-.336,18.95-4.431,4.905,4.095,15.612,4.431,18.95,4.431,4.1,0,16.924-.472,20.5-6.158,3.041,1.852,7.648,2.894,12.95,2.894,6.655,0,12.057-1.607,14.848-4.355,1.52,1.356,3.059,2.506,4.339,3.463a10.175,10.175,0,0,0,6.136,2.213c2.9,0,5.669-1.389,8.074-4.034q.385.4.8.791a9.119,9.119,0,0,0,6.213,2.885c4.5,0,8.168-4.373,10.051-12,1.752-7.092,3.135-15.122,3.879-19.44l.159-.925a1.218,1.218,0,0,0,.055-.26c.006-.065.012-.131.017-.2.223-2.989-2.029-5.121-7.3-6.916m4.87,6.733v.013c-.009.037-.017.073-.023.108l-.18,1.039c-.738,4.284-2.112,12.257-3.843,19.264-1.569,6.352-4.442,10.144-7.683,10.144a6.813,6.813,0,0,1-4.537-2.217c-.4-.377-.769-.767-1.124-1.163l5.981-24.892a1.22,1.22,0,0,0-2.372-.57l-6.029,25.091c-2.112,2.687-4.531,4.108-7,4.108a7.8,7.8,0,0,1-4.676-1.728,55.587,55.587,0,0,1-4.705-3.816l-.9-22.991a1.22,1.22,0,1,0-2.437.1l.906,23.06c-2.076,2.475-7.3,4.057-13.507,4.057-5.137,0-9.629-1.068-12.2-2.878l-.989-17.071a1.22,1.22,0,0,0-2.435.141l1,17.216c-1.28,4.044-10.361,5.855-18.826,5.855-8.187,0-14.791-1.526-17.562-4.016V137.38a1.22,1.22,0,0,0-2.439,0v18.9c-2.54,2.685-9.357,4.347-17.9,4.347-7.973,0-16.5-1.607-18.528-5.173l1.037-17.9a1.22,1.22,0,0,0-2.435-.141l-.974,16.8c-2.5,1.97-7.169,3.145-12.552,3.145-5.91,0-10.923-1.432-13.184-3.7l.92-23.415a1.22,1.22,0,1,0-2.437-.1l-.89,22.663,0,0a52.442,52.442,0,0,1-5.052,4.14,7.8,7.8,0,0,1-4.676,1.728,8.19,8.19,0,0,1-5.565-2.522l-7.026-24.048a1.219,1.219,0,1,0-2.341.684l6.766,23.155a18.567,18.567,0,0,1-2.381,2.72,6.81,6.81,0,0,1-4.536,2.217v0c-3.242,0-6.114-3.792-7.683-10.144-1.731-7.006-3.1-14.979-3.843-19.264l-.179-1.041a18.161,18.161,0,0,1-.278-2.615c0-.02,0-.04,0-.061a2.693,2.693,0,0,1,0-.47c.1-1.064,1.255-2.1,3.425-3.09a46.086,46.086,0,0,1,9.76-2.775c4.483-.872,10.129-1.636,16.78-2.273,4.581-.439,9.733-.825,15.315-1.15,3.865-.224,8.017-.424,12.34-.593,5.778-.226,12.059-.406,18.666-.534,5.941-.115,12.3-.193,18.888-.229,3.062-.017,6.256-.026,9.493-.026,3.3,0,6.577.009,9.748.027,6.6.038,12.961.116,18.9.233,6.606.13,12.88.311,18.648.539,4.351.172,8.513.374,12.372.6,5.576.327,10.715.716,15.276,1.156,6.674.644,12.327,1.418,16.8,2.3a57.933,57.933,0,0,1,7.272,1.853c5.837,1.986,5.705,3.758,5.656,4.423" transform="translate(-3.755 -114.189)"/></g></g></g></g></svg>